<?xml version="1.0" encoding="UTF-8"?>
<svg width="752pt" height="752pt" version="1.1" viewBox="0 0 752 752" xmlns="http://www.w3.org/2000/svg">
 <g>
  <path d="m376 327.7c-12.988-0.125-25.492 4.9375-34.738 14.062-9.2461 9.1289-14.469 21.566-14.512 34.559-0.039062 12.992 5.1016 25.461 14.289 34.648 9.1836 9.1875 21.656 14.328 34.648 14.285 12.992-0.039062 25.43-5.2617 34.555-14.508 9.1289-9.2461 14.191-21.75 14.066-34.742-0.125-12.773-5.2539-24.988-14.285-34.02-9.0352-9.0312-21.25-14.16-34.023-14.285zm0 87.613c-10.449 0.125-20.52-3.9141-27.984-11.23s-11.711-17.305-11.793-27.758c-0.085937-10.449 3.9961-20.508 11.344-27.941 7.3438-7.4336 17.352-11.641 27.801-11.68 10.453-0.042969 20.492 4.0781 27.898 11.453s11.57 17.398 11.57 27.848c0 10.344-4.0781 20.273-11.348 27.629-7.2656 7.3594-17.145 11.555-27.488 11.68z"/>
  <path d="m233.93 327.7c-12.988-0.125-25.492 4.9375-34.738 14.062-9.2461 9.1289-14.469 21.566-14.512 34.559-0.039062 12.992 5.1016 25.461 14.289 34.648 9.1836 9.1875 21.656 14.328 34.648 14.285 12.992-0.039062 25.43-5.2617 34.555-14.508 9.1289-9.2461 14.191-21.75 14.062-34.742-0.12109-12.773-5.25-24.988-14.281-34.02-9.0352-9.0312-21.25-14.16-34.023-14.285zm0 87.613c-10.449 0.125-20.52-3.9141-27.984-11.23s-11.711-17.305-11.793-27.758c-0.085938-10.449 3.9961-20.508 11.344-27.941 7.3438-7.4336 17.348-11.641 27.801-11.68 10.453-0.042969 20.492 4.0781 27.898 11.453s11.57 17.398 11.57 27.848c0 10.344-4.0781 20.273-11.348 27.629-7.2695 7.3594-17.145 11.555-27.488 11.68z"/>
  <path d="m518.07 327.7c-12.988-0.125-25.492 4.9375-34.738 14.062-9.2461 9.1289-14.469 21.566-14.512 34.559-0.039063 12.992 5.1016 25.461 14.289 34.648s21.656 14.328 34.648 14.285c12.992-0.039062 25.43-5.2617 34.555-14.508 9.1289-9.2461 14.191-21.75 14.066-34.742-0.125-12.773-5.2539-24.988-14.285-34.02-9.0352-9.0312-21.25-14.16-34.023-14.285zm0 87.613c-10.449 0.125-20.52-3.9141-27.984-11.23s-11.711-17.305-11.793-27.758c-0.085937-10.449 3.9961-20.508 11.344-27.941 7.3438-7.4336 17.352-11.641 27.801-11.68 10.453-0.042969 20.492 4.0781 27.898 11.453s11.57 17.398 11.57 27.848c0 10.344-4.0781 20.273-11.344 27.629-7.2695 7.3594-17.148 11.555-27.492 11.68z"/>
 </g>
</svg>
